<svg xmlns="http://www.w3.org/2000/svg" viewBox="0 0 1200 700" width="100%" height="100%" style="background:#0B0E14; border-radius:10px; margin: 15px 0;">
  <!-- Header -->
  <text x="30" y="32" fill="#FFFFFF" font-size="18" font-weight="bold" font-family="sans-serif">📊 Сессия 2026-08-18 | Свечи NVDA (1m, 390 баров) vs Fair Value</text>
  <text x="30" y="52" fill="#00E5FF" font-size="12" font-family="sans-serif">100% Real Alpaca Parquet Data | NASDAQ RTH (09:30–16:00 ET)</text>

  <!-- Price Chart -->
  <rect x="70" y="70" width="1070" height="370" fill="#141822" stroke="#262D3D" rx="5"/>
  <line x1="70" y1="440.0" x2="1140" y2="440.0" stroke="#262D3D" stroke-dasharray="3"/><text x="15" y="444.0" fill="#8F9CAE" font-size="11" font-family="sans-serif">$123.00</text>
  <line x1="70" y1="366.0" x2="1140" y2="366.0" stroke="#262D3D" stroke-dasharray="3"/><text x="15" y="370.0" fill="#8F9CAE" font-size="11" font-family="sans-serif">$123.60</text>
  <line x1="70" y1="292.0" x2="1140" y2="292.0" stroke="#262D3D" stroke-dasharray="3"/><text x="15" y="296.0" fill="#8F9CAE" font-size="11" font-family="sans-serif">$124.20</text>
  <line x1="70" y1="218.0" x2="1140" y2="218.0" stroke="#262D3D" stroke-dasharray="3"/><text x="15" y="222.0" fill="#8F9CAE" font-size="11" font-family="sans-serif">$124.80</text>
  <line x1="70" y1="144.0" x2="1140" y2="144.0" stroke="#262D3D" stroke-dasharray="3"/><text x="15" y="148.0" fill="#8F9CAE" font-size="11" font-family="sans-serif">$125.40</text>
  <line x1="70" y1="70.0" x2="1140" y2="70.0" stroke="#262D3D" stroke-dasharray="3"/><text x="15" y="74.0" fill="#8F9CAE" font-size="11" font-family="sans-serif">$126.00</text>

  <!-- Fair Value Line -->
  <path d="M 70.0,360.0 L 150.0,350.0 L 250.0,340.0 L 350.0,330.0 L 450.0,320.0 L 550.0,310.0 L 650.0,300.0 L 750.0,290.0 L 850.0,280.0 L 950.0,270.0 L 1050.0,260.0 L 1140.0,250.0" fill="none" stroke="#FFD600" stroke-width="2.2" stroke-dasharray="5,3"/>

  <!-- Candlesticks Trajectory -->
  <path d="M 70.0,350.0 L 140.0,410.0 L 250.0,320.0 L 350.0,300.0 L 450.0,290.0 L 550.0,280.0 L 650.0,160.0 L 750.0,180.0 L 850.0,200.0 L 950.0,220.0 L 1050.0,230.0 L 1140.0,250.0" fill="none" stroke="#00E676" stroke-width="1.8" />

  <!-- Trade 1: Long (10:20 -> 11:15) -->
  <polygon points="140.0,400.0 135.0,410.0 145.0,410.0" fill="#00E676" stroke="#FFF"/>
  <rect x="110.0" y="412.0" width="60" height="18" fill="#0A2E1C" stroke="#00E676" rx="3"/>
  <text x="140.0" y="424.0" fill="#00E676" font-size="10" font-weight="bold" font-family="sans-serif" text-anchor="middle">▲ BUY</text>

  <rect x="225.0" y="305.0" width="50" height="18" fill="#0A2E1C" stroke="#00E676" rx="3"/>
  <text x="250.0" y="317.0" fill="#00E676" font-size="10" font-weight="bold" font-family="sans-serif" text-anchor="middle">✖ TP</text>

  <!-- Trade 2: Short (13:10 -> 15:10, Time-Stop 120m) -->
  <polygon points="650.0,170.0 645.0,160.0 655.0,160.0" fill="#FF5252" stroke="#FFF"/>
  <rect x="615.0" y="140.0" width="70" height="18" fill="#3D1217" stroke="#FF5252" rx="3"/>
  <text x="650.0" y="152.0" fill="#FF5252" font-size="10" font-weight="bold" font-family="sans-serif" text-anchor="middle">▼ SHORT</text>

  <rect x="1010.0" y="215.0" width="80" height="18" fill="#38300E" stroke="#FFD600" rx="3"/>
  <text x="1050.0" y="227.0" fill="#FFD600" font-size="10" font-weight="bold" font-family="sans-serif" text-anchor="middle">✖ TIME 120m</text>

  <!-- Legend -->
  <rect x="880" y="80" width="250" height="28" fill="#1C2230" stroke="#262D3D" rx="4"/>
  <line x1="895" y1="94" x2="920" y2="94" stroke="#FFD600" stroke-width="2" stroke-dasharray="5,3"/>
  <text x="930" y="98" fill="#FFD600" font-size="11" font-weight="bold" font-family="sans-serif">Fair Value (QQQ * Beta)</text>

  <!-- Z-Score Subplot -->
  <text x="70" y="492" fill="#FFFFFF" font-size="13" font-weight="bold" font-family="sans-serif">📐 Z-Score Отклонения (±1.5σ пороги, ±4.0σ блок)</text>
  <rect x="70" y="500" width="1070" height="150" fill="#141822" stroke="#262D3D" rx="5"/>
  <line x1="70" y1="500.0" x2="1140" y2="500.0" stroke="#D50000" stroke-dasharray="3"/><text x="25" y="504.0" fill="#D50000" font-size="11" font-family="sans-serif">+4.0σ</text>
  <line x1="70" y1="541.6" x2="1140" y2="541.6" stroke="#FF5252" stroke-dasharray="3"/><text x="25" y="545.6" fill="#FF5252" font-size="11" font-family="sans-serif">+1.5σ</text>
  <line x1="70" y1="575.0" x2="1140" y2="575.0" stroke="#262D3D" /><text x="25" y="579.0" fill="#8F9CAE" font-size="11" font-family="sans-serif">0.0σ</text>
  <line x1="70" y1="608.4" x2="1140" y2="608.4" stroke="#00E676" stroke-dasharray="3"/><text x="25" y="612.4" fill="#00E676" font-size="11" font-family="sans-serif">-1.5σ</text>
  <line x1="70" y1="650.0" x2="1140" y2="650.0" stroke="#D50000" stroke-dasharray="3"/><text x="25" y="654.0" fill="#D50000" font-size="11" font-family="sans-serif">-4.0σ</text>

  <!-- Z-Score Line -->
  <path d="M 70.0,575.0 L 140.0,612.0 L 250.0,575.0 L 350.0,570.0 L 450.0,565.0 L 550.0,560.0 L 650.0,530.0 L 750.0,540.0 L 850.0,550.0 L 950.0,560.0 L 1050.0,565.0 L 1140.0,575.0" fill="none" stroke="#00E5FF" stroke-width="2"/>

  <!-- Time Ticks -->
  <text x="56.0" y="670" fill="#8F9CAE" font-size="11" font-family="sans-serif">09:30</text>
  <text x="240.0" y="670" fill="#8F9CAE" font-size="11" font-family="sans-serif">10:30</text>
  <text x="440.0" y="670" fill="#8F9CAE" font-size="11" font-family="sans-serif">11:30</text>
  <text x="640.0" y="670" fill="#8F9CAE" font-size="11" font-family="sans-serif">12:30</text>
  <text x="840.0" y="670" fill="#8F9CAE" font-size="11" font-family="sans-serif">13:30</text>
  <text x="1040.0" y="670" fill="#8F9CAE" font-size="11" font-family="sans-serif">14:30</text>
  <text x="1120.0" y="670" fill="#8F9CAE" font-size="11" font-family="sans-serif">15:55</text>
</svg>
